{"title":"Nikolaein von Kamienski - Die Konferenz (2004)","uid":6090603,"size":1350419152,"categoryP":"video","categoryS":"movies","magnet":"?xt=urn:btih:dd15ef089752991913a5c9af8505559542d52b3d&amp;dn=Nikolaein+von+Kamienski+-+Die+Konferenz+%282004%29&amp;tr=udp%3A%2F%2Ftracker.openbittorrent.com%3A80&amp;tr=udp%3A%2F%2Fopen.demonii.com%3A1337&amp;tr=udp%3A%2F%2Ftracker.coppersurfer.tk%3A6969&amp;tr=udp%3A%2F%2Fexodus.desync.com%3A6969","seeders":1,"leechers":0,"uploader":"mfccorrea","files":3,"time":1294539200,"description":"After Victor, 19 years old, is accused of raping a 17-year-old girl, his teachers -under the direction of principal Cornelia Cordes- have to decide whether he should be suspended or not. The discussion of these nine persons shows the contrasts in human character and reveals some bitter feelings. Movie made for TV.\n\n   General\n      Complete name : Die Konferenz.avi\n      Format : AVI\n      Format/Info : Audio Video Interleave\n      File size : 1.22 GiB\n      Duration : 1h 29mn\n      Overall bit rate : 1 936 Kbps\n      Writing application : FairUse Wizard \n    Video #0\n      ID : 0\n      Format : MPEG-4 Visual\n      Format profile : AdvancedSimple@L5\n      Format settings, BVOP : Yes\n      Format settings, QPel : No\n      Format settings, GMC : No warppoints\n      Format settings, Matrix : Default (MPEG)\n      Muxing mode : Packed bitstream\n      Codec ID : XVID\n      Codec ID/Hint : XviD\n      Duration : 1h 29mn\n      Bit rate : 1 734 Kbps\n      Width : 688 pixels\n      Height : 384 pixels\n      Display aspect ratio : 16:9\n      Frame rate : 25.000 fps\n      Resolution : 24 bits\n      Colorimetry : 4:2:0\n      Scan type : Progressive\n      Bits/(Pixel*Frame) : 0.263\n      Stream size : 1.09 GiB (90%)\n      Writing library : XviD 1.2.1 (UTC 2008-12-04)\n   Audio #1\n      ID : 1\n      Format : AC-3\n      Format/Info : Audio Coding 3\n      Format profile : Dolby Digital\n      Codec ID : 2000\n      Duration : 1h 29mn\n      Bit rate mode : Constant\n      Bit rate : 192 Kbps\n      Channel(s) : 2 channels\n      Channel positions : L R\n      Sampling rate : 48.0 KHz\n      Stream size : 124 MiB (10%)\n      Alignment : Split accross interleaves\n      Interleave, duration : 40 ms (1.00 video frame)\n      Interleave, preload duration : 500 ms\n &lt;a href=&quot;\nhttp://www.imdb.com/title/tt0446726/&quot; rel=&quot;nofollow&quot; target=&quot;_NEW&quot;&gt;\nhttp://www.imdb.com/title/tt0446726/&lt;/a&gt;\n\nGerman audio; multilanguage subpack (English, German, French, Spanish, Portuguese, Italian, Russian, Chinese)\n\nMy rip\n\nNikolaus Stein von Kamienski - Die Konferenz (2004)","torrent":{"xt":"urn:btih:dd15ef089752991913a5c9af8505559542d52b3d","amp;dn":"Nikolaein+von+Kamienski+-+Die+Konferenz+%282004%29","amp;tr":["udp%3A%2F%2Ftracker.openbittorrent.com%3A80","udp%3A%2F%2Fopen.demonii.com%3A1337","udp%3A%2F%2Ftracker.coppersurfer.tk%3A6969","udp%3A%2F%2Fexodus.desync.com%3A6969"],"infoHash":"dd15ef089752991913a5c9af8505559542d52b3d","infoHashBuffer":{"type":"Buffer","data":[221,21,239,8,151,82,153,25,19,165,201,175,133,5,85,149,66,213,43,61]},"announce":[],"urlList":[]}}